<?xml version="1.0" encoding="UTF-8" standalone="no" ?>
<!DOCTYPE svg PUBLIC "-//W3C//DTD SVG 1.1//EN" "http://www.w3.org/Graphics/SVG/1.1/DTD/svg11.dtd">
<svg xmlns="http://www.w3.org/2000/svg" xmlns:xlink="http://www.w3.org/1999/xlink" version="1.1" width="1200" height="900" viewBox="90 -135 1200 900" xml:space="preserve">
<desc>Created with Fabric.js 5.2.4</desc>
<defs>
</defs>
<rect x="0" y="0" width="100%" height="100%" fill="transparent"></rect>
<g transform="matrix(1 0 0 1 600 450)" id="705ab791-c20c-403a-8296-a0d1014c36aa"  >
<rect style="stroke: none; stroke-width: 1; stroke-dasharray: none; stroke-linecap: butt; stroke-dashoffset: 0; stroke-linejoin: miter; stroke-miterlimit: 4; fill: rgb(255,255,255); fill-rule: nonzero; opacity: 1; visibility: hidden;" vector-effect="non-scaling-stroke"  x="-600" y="-450" rx="0" ry="0" width="1200" height="900" />
</g>
<g transform="matrix(Infinity NaN NaN Infinity 0 0)" id="052e44d0-2408-4e93-8e91-eeea061f50ed"  >
</g>
<g transform="matrix(-0.5 0 0 -0.5 705.3 309.93)" id="19543c40-6476-40ac-a3ed-900537a771dd"  >
<path style="stroke: rgb(0,0,0); stroke-width: 0; stroke-dasharray: none; stroke-linecap: butt; stroke-dashoffset: 0; stroke-linejoin: miter; stroke-miterlimit: 4; fill: rgb(64,64,62); fill-rule: nonzero; opacity: 1;" vector-effect="non-scaling-stroke"  transform=" translate(-2854.95, -2305)" d="M 2795 3094 C 2754 3068 2668 2957 2579 2818 C 2552 2775 2530 2739 2530 2736 C 2530 2733 2517 2703 2501 2668 C 2451 2558 2422 2458 2404 2336 C 2389 2232 2389 2202 2399 2111 C 2418 1942 2472 1801 2579 1641 C 2663 1513 2690 1488 2737 1492 L 2775 1495 L 2775 2012 C 2775 2521 2775 2529 2796 2557 C 2831 2604 2899 2601 2925 2550 C 2938 2525 2940 2447 2940 2005 L 2940 1490 L 2983 1490 C 3023 1490 3030 1494 3071 1543 C 3125 1605 3224 1766 3241 1818 C 3247 1838 3258 1869 3265 1885 C 3311 1993 3328 2138 3312 2304 C 3288 2557 3186 2782 2980 3038 C 2940 3088 2893 3120 2858 3120 C 2845 3120 2816 3108 2795 3094 z" stroke-linecap="round" />
</g>
<g transform="matrix(NaN NaN NaN NaN 0 0)"  >
<g style=""   >
</g>
</g>
<g transform="matrix(NaN NaN NaN NaN 0 0)"  >
<g style=""   >
</g>
</g>
<g transform="matrix(NaN NaN NaN NaN 0 0)"  >
<g style=""   >
</g>
</g>
<g transform="matrix(NaN NaN NaN NaN 0 0)"  >
<g style=""   >
</g>
</g>
<g transform="matrix(NaN NaN NaN NaN 0 0)"  >
<g style=""   >
</g>
</g>
<g transform="matrix(NaN NaN NaN NaN 0 0)"  >
<g style=""   >
</g>
</g>
</svg>